<svg width="896" height="143" viewBox="0 0 896 143" fill="none" xmlns="http://www.w3.org/2000/svg">
<g clip-path="url(#clip0_905_431)">
<path d="M27.8601 0H386.79C390.92 0 394.58 1.7 396.64 4.99L433.02 64C435.82 68.63 435.33 74.22 431.32 78.84L380.09 137.85C377.29 141.01 373.64 142.96 369.5 142.96H11.6501C4.4701 142.96 -0.759901 137.36 0.0900993 130.3L13.6101 12.66C14.4601 5.48 20.6701 0 27.8501 0H27.8601Z" fill="white"/>
<path d="M212.81 39.8604L194.18 82.2604L184.5 39.8604H165.38L182.42 101.26L172.5 121.36H191.37L231.44 39.8604H212.8H212.81ZM32.4102 121.36H49.5602L52.3802 98.2004C55.0702 100.28 60.1002 102.61 66.4702 102.61C86.3302 102.61 98.4602 85.0804 98.4602 65.9704C98.4602 49.6704 90.7402 38.2704 76.2802 38.2704C69.4102 38.2704 63.1602 40.4704 58.3902 44.4004L59.0002 39.8704H42.3402L32.4202 121.37V121.35L32.4102 121.36ZM53.8602 86.1804L57.6602 56.0404C61.3302 53.1004 65.5002 51.8704 69.1802 51.9904C76.5302 52.1104 80.5802 57.9904 80.5802 67.1904C80.5802 79.0804 74.3302 89.2504 63.7902 89.2504C60.4802 89.2504 56.6902 88.1504 53.8702 86.1804H53.8602ZM101.78 84.5904C101.65 94.5104 109.75 102.61 122.12 102.61C130.82 102.61 137.19 98.9404 140.87 94.8904L140.13 101.14H156.79L160.84 67.9304C162.8 51.5104 157.41 38.1504 136.33 38.1504C127.75 38.1504 117.34 40.1104 111.7 43.7904L109.98 57.5204C114.52 55.0604 123.34 52.0804 131.43 52.0804C141.11 52.0804 144.55 56.9104 144.17 62.0604H133.87C118.92 62.0604 101.88 67.8204 101.76 84.6104H101.78V84.5904ZM119.06 83.2404C119.06 76.6204 126.78 74.1704 134.74 74.1704H142.83L141.6 84.0904C138.17 86.7804 132.04 89.6004 126.89 89.6004C122.23 89.6004 119.05 87.0304 119.05 83.2204L119.06 83.2404ZM329.45 73.0704C329.2 88.3904 340.36 102.6 363.15 102.6C371.24 102.6 378.1 101.01 384.22 97.2104L385.45 82.7504C380.43 85.8204 372.83 87.9004 366.21 87.9004C357.51 87.9004 349.67 84.1004 347.46 75.2804H389.86C390.47 73.6904 390.96 69.8904 390.96 66.2104C390.96 50.0404 382.01 38.2704 363.63 38.2704C345.25 38.2704 329.69 49.1804 329.44 73.0704H329.45ZM347.59 64.8604C349.31 56.7704 355.19 51.9904 362.42 51.9904C369.65 51.9904 373.57 56.0404 373.57 62.5304C373.57 63.2704 373.57 64.1204 373.45 64.8604H347.59ZM245.41 101.13L251.05 56.2804C254.85 53.7104 259.14 51.6204 262.82 51.6204C267.6 51.6204 269.92 55.1804 269.2 61.3004L264.3 101.13H281.58L286.97 57.6304L287.09 56.4004C290.89 53.8304 295.3 51.6204 298.98 51.6204C303.76 51.6204 306.08 55.1804 305.36 61.3004L300.46 101.13H317.74L323.13 57.6304C324.6 45.5004 318.35 38.1504 307.2 38.1504C299.48 38.1504 291.27 42.5604 285.75 46.6104C283.42 41.2204 278.27 38.1504 271.04 38.1504C263.81 38.1504 256.82 41.7104 251.31 45.3804L252.05 39.8704H235.88L228.16 101.15H245.44H245.42L245.41 101.13Z" fill="#D6D6D6"/>
<path d="M506.52 66.5202C506.52 57.5602 501.75 52.7902 494.83 52.7902C490.41 52.7902 486.99 53.6902 483.59 56.1902L479.84 84.3302C482.34 87.0502 485.86 88.8702 490.85 88.8702C502.76 88.8702 506.51 76.5102 506.51 66.5202H506.52ZM522.96 66.5202C522.96 84.0002 513.87 101.58 493.57 101.58C485.73 101.58 480.29 98.7402 477.11 94.6602L475.51 99.8802H461L472.24 19.9902H488.57L485.17 44.6102C488.69 41.6602 493.01 40.0702 498.33 40.0702C512.51 40.0702 522.95 49.6102 522.95 66.5102L522.96 66.5202Z" fill="white"/>
<path d="M586.75 41.7803L578.58 99.8903H564.4L564.17 93.4203C560.2 98.6403 554.75 101.59 547.71 101.59C536.82 101.59 529.78 94.6703 529.78 84.1103C529.78 82.1903 529.9 80.5903 530.46 76.7403L535.33 41.7803H551.44L546.57 76.7403C546.34 78.2103 546.22 79.6903 546.22 81.3903C546.22 85.3603 548.82 88.3103 554.06 88.3103C558.15 88.3103 561.55 86.6103 564.62 83.3203L570.41 41.7903H586.74L586.75 41.7803Z" fill="white"/>
<path d="M620.68 84.3296C620.68 81.4896 619.21 80.2396 613.87 78.0896L606.6 75.0196C597.64 71.3996 593.44 66.6296 593.44 58.2196C593.44 47.8896 601.61 40.0596 618.41 40.0596C626.7 40.0596 634.29 42.3296 640.31 45.7296L637.02 57.4196C631.12 54.4696 624.21 52.3196 618.41 52.3196C612.61 52.3196 609.9 54.2396 609.9 57.4196C609.9 60.2596 611.6 61.5096 615.69 63.0896L623.41 66.2596C632.95 70.1296 637.14 74.3196 637.14 83.5096C637.14 92.6996 629.87 101.56 612.29 101.56C602.3 101.56 594.48 98.7196 588.69 95.3196L591.98 83.2896C597.55 86.6896 604.69 89.1896 612.29 89.1896C618.19 89.1896 620.68 87.3696 620.68 84.3196V84.3396V84.3296Z" fill="white"/>
<path d="M654.18 20H670.06L668.01 33.96H652.13L654.18 20ZM651.11 41.78H666.89L658.72 99.89H642.94L651.11 41.78Z" fill="white"/>
<path d="M726.57 57.5603C726.57 59.4803 726.45 61.0803 725.89 64.9303L721.02 99.8903H704.91L709.78 64.9303C710.01 63.4603 710.13 61.9803 710.13 60.2803C710.13 56.3103 707.53 53.3603 702.29 53.3603C698.2 53.3603 694.8 55.0603 691.73 58.3503L685.94 99.8803H669.61L677.78 41.7703H691.96L692.19 48.2403C696.16 43.0203 701.61 40.0703 708.65 40.0703C719.54 40.0703 726.58 46.9903 726.58 57.5503L726.57 57.5603Z" fill="white"/>
<path d="M750.29 65.8501H773.09C773.21 64.7201 773.32 63.7001 773.32 62.5601C773.32 56.6601 770.37 52.8001 763.9 52.8001C755.84 52.8001 751.87 58.5901 750.29 65.8601V65.8501ZM786.95 76.1701H749.39C749.84 85.1301 755.29 88.5301 764.37 88.5301C771.86 88.5301 778.55 86.9301 784.35 82.7401L780.26 97.5001C774.82 100.57 768.35 101.59 763.13 101.59C742.48 101.59 733.51 90.3501 733.51 75.0401C733.51 56.7601 743.72 40.0801 763.92 40.0801C780.72 40.0801 788.77 50.5201 788.77 63.5801C788.77 68.1201 787.97 72.3201 786.95 76.1701Z" fill="white"/>
<path d="M824.06 84.3296C824.06 81.4896 822.59 80.2396 817.25 78.0896L809.98 75.0196C801.02 71.3996 796.82 66.6296 796.82 58.2196C796.82 47.8896 804.99 40.0596 821.79 40.0596C830.08 40.0596 837.67 42.3296 843.69 45.7296L840.4 57.4196C834.5 54.4696 827.59 52.3196 821.79 52.3196C815.99 52.3196 813.28 54.2396 813.28 57.4196C813.28 60.2596 814.98 61.5096 819.07 63.0896L826.79 66.2596C836.33 70.1296 840.52 74.3196 840.52 83.5096C840.52 92.6996 833.25 101.56 815.67 101.56C805.68 101.56 797.86 98.7196 792.07 95.3196L795.36 83.2896C800.93 86.6896 808.07 89.1896 815.67 89.1896C821.57 89.1896 824.06 87.3696 824.06 84.3196V84.3396V84.3296Z" fill="white"/>
<path d="M876.37 84.3296C876.37 81.4896 874.9 80.2396 869.56 78.0896L862.29 75.0196C853.33 71.3996 849.13 66.6296 849.13 58.2196C849.13 47.8896 857.3 40.0596 874.1 40.0596C882.39 40.0596 889.98 42.3296 896 45.7296L892.71 57.4196C886.81 54.4696 879.9 52.3196 874.1 52.3196C868.3 52.3196 865.59 54.2396 865.59 57.4196C865.59 60.2596 867.29 61.5096 871.38 63.0896L879.1 66.2596C888.64 70.1296 892.83 74.3196 892.83 83.5096C892.83 92.6996 885.56 101.56 867.98 101.56C857.99 101.56 850.17 98.7196 844.38 95.3196L847.67 83.2896C853.24 86.6896 860.38 89.1896 867.98 89.1896C873.88 89.1896 876.37 87.3696 876.37 84.3196V84.3396V84.3296Z" fill="white"/>
</g>
<defs>
<clipPath id="clip0_905_431">
<rect width="896" height="142.97" fill="white"/>
</clipPath>
</defs>
</svg>
